inDegrees=no
num_controls=7
num_derivatives=13
num_iterations=128
num_multipliers=7
num_parameters=0
num_slacks=7
num_states=26
objective=4.260769
objective_accelerations=0.622167
objective_balance=0.067046
objective_effort=0.634061
objective_height=2.884037
objective_ligament=0.053459
solver_duration=1265.223743
status=Solve_Succeeded
success=true
DataType=double
version=3
OpenSimVersion=4.4-2022-07-23-0e9fedc
endheader
time	/jointset/ground_pelvis/pelvis_tilt/value	/jointset/ground_pelvis/pelvis_tx/value	/jointset/ground_pelvis/pelvis_ty/value	/jointset/hip_l/hip_flexion_l/value	/jointset/hip_l/hip_adduction_l/value	/jointset/hip_l/hip_rotation_l/value	/jointset/back/lumbar_extension/value	/jointset/patellofemoral_l/patellar_flexion_l/value	/jointset/knee_l/knee_flexion_l/value	/jointset/knee_l/knee_adduction_l/value	/jointset/knee_l/knee_rotation_l/value	/jointset/ankle_l/ankle_angle_l/value	/jointset/subtalar_l/subtalar_angle_l/value	/jointset/ground_pelvis/pelvis_tilt/speed	/jointset/ground_pelvis/pelvis_tx/speed	/jointset/ground_pelvis/pelvis_ty/speed	/jointset/hip_l/hip_flexion_l/speed	/jointset/hip_l/hip_adduction_l/speed	/jointset/hip_l/hip_rotation_l/speed	/jointset/back/lumbar_extension/speed	/jointset/patellofemoral_l/patellar_flexion_l/speed	/jointset/knee_l/knee_flexion_l/speed	/jointset/knee_l/knee_adduction_l/speed	/jointset/knee_l/knee_rotation_l/speed	/jointset/ankle_l/ankle_angle_l/speed	/jointset/subtalar_l/subtalar_angle_l/speed	/forceset/tau_hip_flexion_l	/forceset/tau_hip_adduction_l	/forceset/tau_hip_rotation_l	/forceset/tau_knee_flexion_l	/forceset/tau_ankle_angle_l	/forceset/tau_subtalar_angle_l	/forceset/tau_lumbar_extension	lambda_cid13_p0	lambda_cid13_p1	lambda_cid13_p2	lambda_cid13_p3	lambda_cid13_p4	lambda_cid13_p5	lambda_cid14_p0	/jointset/ground_pelvis/pelvis_tilt/accel	/jointset/ground_pelvis/pelvis_tx/accel	/jointset/ground_pelvis/pelvis_ty/accel	/jointset/hip_l/hip_flexion_l/accel	/jointset/hip_l/hip_adduction_l/accel	/jointset/hip_l/hip_rotation_l/accel	/jointset/back/lumbar_extension/accel	/jointset/patellofemoral_l/patellar_flexion_l/accel	/jointset/knee_l/knee_flexion_l/accel	/jointset/knee_l/knee_adduction_l/accel	/jointset/knee_l/knee_rotation_l/accel	/jointset/ankle_l/ankle_angle_l/accel	/jointset/subtalar_l/subtalar_angle_l/accel	gamma_cid13_p0	gamma_cid13_p1	gamma_cid13_p2	gamma_cid13_p3	gamma_cid13_p4	gamma_cid13_p5	gamma_cid14_p0
1	-0.05971481423049367	-0.02049602189715019	0.4595392800430523	1.879662320217969	-0.3213089085069406	0.1155584585845243	-0.9598133252326724	2.092292149430942	2.092292149431028	0.1744058603161074	-0.1745304637685823	0.4287379846202672	0.1524883443956458	0.04653569741536068	0.002099609121286023	0.08280080553219947	-0.3097289365962582	-0.01946858959676642	-0.06566981582306666	-0.0104184425541717	-0.182657751646729	-0.1826577516466969	-0.01909341422958256	0.00028687720633898	0.07048903164565712	0.01358854269619724	-0.374920641271012	0.00815487925211747	-0.06448582320576468	-0.5013947552528993	-0.02127674483383028	0.01014222279147106	0.4473019513100779	-65.24623259487655	19.24167871625227	-17.48276754212176	29.30889599930811	-872.8225098771788	-33.73656993885195	-0.02373425100516281	-0.6546425684057894	-0.5576425142393664	2.79162999103242	-7.704533455615913	-0.2335069955491263	-2.14626526904905	0.5066969128771033	-7.75908222196736	-7.759082221967585	-1.226933571945489	-0.008244197855689131	0.03530637303941003	-0.3167198299261554	3.143552243940497e-08	-6.459252537716209e-08	-3.323031354566978e-07	-8.237817801099558e-08	-7.782277312209778e-08	-5.241760509195309e-07	4.710015632311279e-08
1.01	-0.05928139652028194	-0.02050288588194451	0.4605069234662884	1.876179386588161	-0.3215137241616159	0.1147998563234635	-0.9598935019566625	2.090077540344308	2.09007754034439	0.1741495950539604	-0.1745272211976896	0.4294442525141864	0.1526105836644432	0.0402314143484667	-0.003465997345183334	0.110729505672829	-0.3868496418995084	-0.02145082479516044	-0.08596504938880102	-0.005743985699842323	-0.2602727326678071	-0.2602727326678099	-0.03221179178653309	0.0003650975327399003	0.0706627981692439	0.01086460303325713	-0.3738662630163528	0.008432795674160784	-0.06432805737052971	-0.5023723798249768	-0.02093244061950844	0.01053957255498077	0.4464112571937089	-65.07640822120756	19.0013410115909	-17.40100791744343	29.22888811826741	-872.3569394382763	-34.27089618973148	-0.02390294918440408	-0.6057824075677277	-0.5550816858802475	2.793711864628051	-7.714613242964907	-0.1739505999103741	-1.958298984308525	0.4287575524456324	-7.764021178631646	-7.764021178636672	-1.362047471875918	0.01625829368297985	-0.006850143987442603	-0.2493599610083259	4.601182207016461e-08	-1.544248310641712e-07	-4.448508505097948e-07	-1.160762225400031e-07	-1.103943522628732e-07	-9.111652243491551e-07	7.515701784523305e-08
1.02	-0.05890851388708002	-0.02056521832600909	0.4617538982587422	1.871925491070305	-0.3217370359318488	0.1138408724099141	-0.9599307466158605	2.087086518420172	2.087086518420201	0.1737605944913501	-0.1745231157942069	0.4301492056861481	0.1527057577513051	0.03442868201213001	-0.008994082732765913	0.1386670793757497	-0.4639213142141538	-0.02316781271058006	-0.105746146313448	-0.001832029616087859	-0.3379403191470344	-0.3379403191470703	-0.04564047431574169	0.0004594436909133944	0.07022608725259052	0.008175506309077174	-0.3728118847615297	0.008710712096160152	-0.06417029153528898	-0.5033500043970528	-0.02058813640524843	0.01093692231837638	0.4455205630774587	-64.90305175670754	18.75895411830583	-17.31728655030053	29.17499988612856	-871.8365513251888	-34.7819822501769	-0.02413356088388881	-0.554332422294316	-0.5501382984619937	2.79340470349066	-7.694726857895002	-0.180457538954704	-2.043437940831567	0.3541967587623578	-7.769603313597285	-7.76960331359718	-1.28899456639746	-0.005019031502199355	-0.08678911500870562	-0.3097512421749427	5.979409248304889e-08	-2.626034312030891e-07	-5.832946111512795e-07	-1.418187829218965e-07	-1.439359153555877e-07	-1.376735673221413e-06	1.097211938127731e-07
1.03	-0.058591535296416	-0.02068232636572206	0.463280222501061	1.866901729322075	-0.3219762545507749	0.1126868843447452	-0.9599308920984385	2.083318801934339	2.083318801934345	0.1732356580204786	-0.17451819229325	0.4308468065417471	0.1527741526736314	0.02901178326727508	-0.01438957698926359	0.1665927876749339	-0.5407669174126513	-0.02463479343560072	-0.1249683962748889	0.001854585394823138	-0.4155882626976714	-0.4155882626977236	-0.05938223055365557	0.0005270054680432734	0.06920236041492779	0.005511002054544922	-0.3729156554480365	0.008966855171594987	-0.06385705427314384	-0.5041957805340271	-0.02013880785492021	0.01138314134135166	0.4460858151678123	-64.71677927783034	18.48072514882892	-17.21373746070139	28.53250497709316	-872.1575747993419	-35.30724494096489	-0.02439697777496518	-0.5286452870475884	-0.5285964077624606	2.791370980401737	-7.669847849991471	-0.1235373196053779	-1.849128671186901	0.3836417104701598	-7.760211658031015	-7.760211658033564	-1.421962614738451	0.01270321842737302	-0.1239261452097001	-0.2435264685623799	7.356826055697525e-08	-3.70969238428251e-07	-7.220026171559111e-07	-1.674801648941254e-07	-1.774873762437301e-07	-1.843107971843085e-06	1.443517709481236e-07
1.04	-0.05832738103048613	-0.02085225763170362	0.4650856472438272	1.86111143738205	-0.3222288867730086	0.1113431717504705	-0.9598926218629799	2.078775041656553	2.078775041656509	0.1725722646946378	-0.1745125812871909	0.4315314177935598	0.1528161572631178	0.02386381706376934	-0.01955872798648512	0.1944871794652082	-0.617227352577708	-0.02585053337380279	-0.143691052131785	0.005851113934350064	-0.4931490775376731	-0.493149077537742	-0.07333184528158028	0.000596944689430258	0.06762816649467468	0.002897439741199526	-0.3730194261344498	0.009222998247008788	-0.06354381701118959	-0.5050415566709913	-0.01968947930462354	0.01182936036427534	0.4466510672582328	-64.52746394266762	18.19946482727065	-17.10685039691223	27.91946794295774	-872.4287579127413	-35.81804253970018	-0.02471930246799127	-0.5005459140244498	-0.5048696466067792	2.787141401708686	-7.617693251206887	-0.1302093815912762	-1.943519119922595	0.416179464484956	-7.752177571470345	-7.752177571470291	-1.330566264399897	-0.004543542651483178	-0.1968825315269129	-0.299562853938156	8.868573347750266e-08	-4.800065269347643e-07	-8.575745639296934e-07	-1.946978455333429e-07	-2.082315402001522e-07	-2.297449580582546e-06	1.782888119505351e-07
1.05	-0.05811333953464471	-0.02107249179889121	0.4671697599878038	1.854558852273216	-0.3224925084055991	0.1098148358215523	-0.9598118437325814	2.073456476266136	2.073456476266108	0.1717683735821995	-0.1745064398167905	0.432197534615506	0.1528321380829134	0.0189900093428148	-0.02442474952396428	0.2223208339429129	-0.6931917605993672	-0.02683725183972969	-0.1618931747862347	0.01045633457452326	-0.5705146301078062	-0.5705146301079256	-0.08746562447980212	0.0006270091036975331	0.06550750684945607	0.0003014391230029899	-0.3738408931766083	0.009459260355924832	-0.06306861424176254	-0.5056215539473878	-0.01914796924467147	0.01235554829411491	0.4480925096678965	-64.29926953233908	17.85467450895214	-16.96471539870934	26.84751592599035	-873.0201907277375	-36.38467112465983	-0.0250737545193912	-0.4739497426754744	-0.4680096866435525	2.779249075509658	-7.571108632401094	-0.0772703402571327	-1.746070823992956	0.5054667277935586	-7.721381317825545	-7.721381317833177	-1.457508389353222	0.005842319477685504	-0.2328176575662903	-0.2389994182901173	1.038451846744863e-07	-5.890647992313199e-07	-9.930485088525118e-07	-2.219641605059037e-07	-2.38887976127458e-07	-2.751415230263188e-06	2.122041799487922e-07
1.06	-0.05794666642431372	-0.02133949443731849	0.4695317635975008	1.847249564273248	-0.3227648706750676	0.1081069762689494	-0.9596804587229497	2.067365727906409	2.067365727906349	0.1708225997496647	-0.1745001855249811	0.4328398128456875	0.1528222827460201	0.01439013996009257	-0.02891242223442434	0.2500653526092777	-0.7685679308112311	-0.02759866075220772	-0.1795957768721557	0.01597248977513548	-0.6475856713995662	-0.6475856713997363	-0.1017083893508303	0.0006195089584356095	0.06286044814235718	-0.002269791596381927	-0.3746623602186393	0.009695522464874588	-0.06259341147194361	-0.5062015512237755	-0.01860645918474788	0.01288173622398795	0.4495339520776615	-64.06871196585769	17.50597787496528	-16.8179676227801	25.80743809705381	-873.5702841382172	-36.94506636685806	-0.02548255697697818	-0.4457582463779481	-0.4291998812030074	2.76931423944071	-7.500045689247863	-0.08514747090168816	-1.843615006216809	0.5983663765727935	-7.693275315795791	-7.693275315795811	-1.35236339896138	-0.01205645455779542	-0.3021623439031479	-0.294608874176252	1.206516700060573e-07	-6.963115566453581e-07	-1.118597261995803e-06	-2.473892620435248e-07	-2.633262804978918e-07	-3.207135230105539e-06	2.473697016827871e-07
